<?xml version="1.0" encoding="UTF-8"?>
<svg id="_Слой_1" data-name=" Слой 1" xmlns="http://www.w3.org/2000/svg" viewBox="0 0 352.36 383.31">
  <defs>
    <style>
      .cls-1 {
        fill: #fff;
      }
    </style>
  </defs>
  <path d="M320.73,326.41v44.16c-2.33,6.73-6.04,10.41-12.75,12.73H13.23c-5.17-2.38-9.65-4.73-11.62-10.48-2.75-8.03-1.37-39.99-.29-49.68,5.93-53.1,49.03-94.65,102.25-99.31,37.41,1.81,76.9-2.29,114.06,0,47.98,2.96,90.81,40.97,100.48,87.6l2.62,14.98h0Z"/>
  <path class="cls-1" d="M352.36,370.58v12.73h-12.75c6.71-2.32,10.42-5.99,12.75-12.73Z"/>
  <path d="M152.92.27c77.32-5.63,129.52,77.5,90.01,144.47-37.87,64.2-132.74,61.83-167.5-3.95C43.23,79.85,84.32,5.27,152.92.27Z"/>
</svg>