<?xml version="1.0" encoding="UTF-8"?>
<svg id="_Слой_1" data-name="Слой 1" xmlns="http://www.w3.org/2000/svg" viewBox="0 0 369.01 335.29">
  <path d="M245.18,83.02c4.19-.86,7.97-4.32,12.52-5.03,34.34-5.34,47.32,40.05,16.67,54.12l36.61,64.51c6.98,20.07-12.47,38.67-32.35,30.04-4.59-1.99-7.05-5.81-9.95-7.28-2.53-1.28-14.99-2.2-18.62-2.37-40.01-1.89-81.73,7.47-118.89,21.45l-2.26-.05-47.89-83.02c26.19-22.04,50.49-46.68,68.89-75.7,3.54-5.58,18.36-30.75,17.83-35.77-.3-2.85-2.13-6.27-2.04-9.79.39-16.08,16.81-27.03,31.86-22.24,8.22,2.61,11.21,7.75,15.46,14.51,10.97,17.44,20.07,36.15,31.03,53.63.57.91.9,1.96,1.12,2.99Z"/>
  <path d="M65.52,160.24l52.11,88.62-43.5,25.44c-38.87,17.63-80.77-13.39-73.25-55.89,5.95-33.63,40.24-41.16,64.64-58.16Z"/>
  <path d="M127.27,262.06l34.49,45.31c3.68,4.78,3.03,9.86-.88,14.2-2.26,2.5-10.58,10.07-13.27,11.83-4.68,3.06-9.49,2.27-13.46-1.47l-39.72-51.65,32.84-18.22Z"/>
  <path d="M286.21.13c8.66-1.25,14.27,6.89,11.27,15.02-1.8,4.87-15.97,29.09-19.36,33.07-7.97,9.34-21.25,1.67-18.37-9.36,6.77-10.18,12.35-24.87,19.57-34.36,1.66-2.18,4.12-3.98,6.9-4.38Z"/>
  <path d="M365.63,124.48c6.86,6.46,2.53,16.9-6.31,18.26-7.03,1.08-30.88,1.09-37.99.13-12.39-1.68-12.35-18.65-2.14-20.72,5.8-1.18,34.62-.97,41.1-.19,1.86.22,4.02,1.28,5.34,2.53Z"/>
  <path d="M343.96,48.03c9.07-1.32,15.45,8.49,10.26,16.25-4.88,7.3-27.19,15.37-34.8,21.41-11.05,3.51-19.43-9.56-10.93-17.65,3.64-3.46,25.31-15.64,30.65-18.07,1.47-.67,3.25-1.72,4.83-1.95Z"/>
</svg>