<?xml version="1.0" encoding="UTF-8"?>
<svg id="_Слой_1" data-name="Слой 1" xmlns="http://www.w3.org/2000/svg" viewBox="0 0 336.08 280.13">
  <path d="M277.25,276.01c-4.45,4.44-11.69,5.39-17.22,2.38l-79.64-59.77c-5.06,4.37-10.17,8.89-15.02,13.48-7.88,7.46-20.12,22.6-28.15,28.04-4.5,3.05-8.85,2.02-9.72-3.67l4.91-72.24L271.92,55.44c.85-1.38.04-2.55-1.17-3.38l-2.76.23-183.02,111.57L5.98,137.46c-7.07-3.63-8.11-13.46-1.83-18.37L315.47.15c11.92-1.58,22.41,9.21,20.35,21.06l-55.9,251.1c-.91,1.08-1.72,2.76-2.67,3.7Z"/>
</svg>