<?xml version="1.0" encoding="UTF-8"?>
<svg id="_Слой_1" data-name="Слой 1" xmlns="http://www.w3.org/2000/svg" viewBox="0 0 384 381.06">
  <path d="M384,183.02v171.42c-3.94,16.21-14.61,24.36-31.09,25.48-22.36,1.53-56.4,1.44-78.81,0-53.03-3.41-21.5-70.94-34.7-100.85-5.47-12.4-18.39-21.77-31.99-22.72-21.07-1.47-44.36-2.84-58.03,15.51-22.89,30.71,16.83,104.28-38.72,108.07-22.39,1.53-57.17,1.53-79.56,0-16.48-1.12-27.15-9.27-31.09-25.48v-171.42c2.03-10.31,5.54-19.61,12.37-27.7L161,10.23c21.52-15.57,49.1-12.99,68.14,5.09l142.49,139.99c5.91,7,11.39,18.58,12.37,27.7Z"/>
</svg>