<?xml version="1.0" encoding="UTF-8"?>
<svg id="_Слой_1" data-name=" Слой 1" xmlns="http://www.w3.org/2000/svg" viewBox="0 0 13.17 14.61">
  <path d="M11.66,5.66c-1.64-1-3.75-1.04-5.44-.11-2.6,1.43-3.58,4.7-2.16,7.33l.67.99H1.97c-.86,0-1.77-.84-1.91-1.68C-.01,8.69-.02,5.15.06,1.65.25.76.98.11,1.89,0h7.87c.83,0,1.88.97,1.88,1.81v3.84h.02ZM2.72,2.26c-.63.21-.56,1.02.1,1.11h6.08c.68-.11.68-1.01,0-1.12H2.72h0ZM2.72,4.51c-.61.18-.56,1.03.07,1.11.94.13,2.15-.09,3.12,0,.65-.13.67-.94.04-1.12h-3.23ZM2.72,6.75c-.48.1-.61.8-.14,1.04.2.1.85.11,1.08.07.68-.09.64-1.04,0-1.12-.17-.02-.78-.02-.94,0h0Z"/>
  <path d="M8.39,6.02c4.36-.38,6.52,5.04,3.1,7.69-2.64,2.05-6.5.41-6.92-2.88-.29-2.33,1.46-4.6,3.82-4.81ZM9.41,9.73v-1.07c0-.08-.16-.28-.23-.33-.38-.27-.86-.02-.9.44-.03.31-.04,1.44.03,1.7.05.19.25.37.45.39.36.04,1.26.04,1.62,0,.41-.04.64-.51.4-.86-.07-.1-.28-.26-.4-.26h-.97Z"/>
</svg>