<?xml version="1.0" encoding="UTF-8"?>
<svg id="_Слой_1" data-name="Слой 1" xmlns="http://www.w3.org/2000/svg" viewBox="0 0 391.85 342.16">
  <path d="M391.85,159.54v6.88l-6.1,9.58-148.83,147.78c-8.52,4.5-20.71.49-23.6-9.02-.19-.61-1.12-5.44-1.12-5.76v-83.71c-70.02-5.14-129.08,33.3-168.04,88.44-8,11.33-16.02,34.03-33.56,27.17-6.24-2.44-9.54-8.65-10.14-15.09-1.18-12.69.15-30.65,1.61-43.47,6.81-59.69,33.13-111.72,79.05-150.29,36.27-30.47,83.63-48.53,131.09-50.47V16.2c0-.26.94-4.39,1.13-4.98,3.59-11.25,18.1-14.97,26.75-6.85l147.58,147.5,4.19,7.66Z"/>
</svg>