<?xml version="1.0" encoding="UTF-8"?>
<svg id="_Слой_1" data-name="Слой 1" xmlns="http://www.w3.org/2000/svg" viewBox="0 0 336 335.45">
  <path d="M336,119.82v184.51c0,14.28-19.53,31.8-34.09,31.1l-269.27-.05c-14.01-.09-32.64-17.2-32.64-31.05V119.82h336ZM240,203.66l-35.46,20.85-53.98-42.74c-8.18-4.75-11.89-.98-18.16,3.94-28.16,22.13-54.75,48.33-82.47,71.14-6.96,11.65,4.32,23.49,16.32,17.04l78.12-66.24c17.08,11.73,32.43,27.02,49.2,38.97,5.94,4.23,8.43,6.84,16.18,3.58l42.62-25.58c-2.3,13.88,16.5,20.27,22.67,7.65,3.04-6.22,11.38-30.87,12.61-37.56,1.38-7.53-2.7-14.18-10.53-15.01-8.99-.96-28.4-.83-37.53-.03-15.98,1.4-15.12,23.38.41,23.99Z"/>
  <path d="M336,95.87H0V31.12C0,17.26,18.63.16,32.64.07L301.91.02c14.57-.71,34.09,16.81,34.09,31.1v64.75ZM45.56,36.16c-10.28,1.73-13.12,16.12-4.27,21.87,4.33,2.81,20.6,2.85,24.98.3,9.82-5.72,6.56-21.04-5.14-22.35-3.54-.4-12.13-.4-15.57.18ZM105.56,36.16c-10.28,1.73-13.12,16.12-4.27,21.87,4.33,2.81,20.6,2.85,24.98.3,9.82-5.72,6.56-21.04-5.14-22.35-3.54-.4-12.13-.4-15.57.18Z"/>
</svg>